<?xml version="1.0" standalone="no"?>
<!DOCTYPE svg PUBLIC "-//W3C//DTD SVG 20010904//EN"
 "http://www.w3.org/TR/2001/REC-SVG-20010904/DTD/svg10.dtd">
<svg version="1.0" xmlns="http://www.w3.org/2000/svg"
 width="256.000000pt" height="256.000000pt" viewBox="0 0 256.000000 256.000000"
 preserveAspectRatio="xMidYMid meet">
<metadata>
Created by potrace 1.14, written by Peter Selinger 2001-2017
</metadata>
<g transform="translate(0.000000,256.000000) scale(0.100000,-0.100000)"
fill="#000000" stroke="none">
<path d="M577 2427 c-90 -29 -136 -103 -124 -202 13 -99 75 -152 188 -158 132
-8 207 33 229 123 24 99 -9 191 -80 226 -44 21 -163 28 -213 11z"/>
<path d="M1633 1854 c-172 -25 -268 -69 -368 -169 -116 -115 -171 -256 -174
-447 -7 -392 240 -650 624 -651 132 -1 179 5 265 34 193 63 332 212 386 414
20 73 26 248 12 330 -33 190 -160 357 -333 435 -116 53 -277 74 -412 54z m231
-308 c65 -38 120 -116 134 -190 10 -56 8 -234 -4 -273 -42 -140 -128 -214
-247 -215 -119 -1 -212 63 -252 172 -25 69 -28 278 -6 350 28 87 87 150 166
178 54 18 159 8 209 -22z"/>
<path d="M595 1846 c-69 -25 -99 -59 -112 -125 -3 -14 -6 -287 -7 -607 -1
-553 -2 -582 -20 -616 -23 -43 -78 -76 -138 -84 -91 -12 -133 -55 -132 -135 1
-58 23 -95 75 -122 28 -15 49 -17 119 -13 205 12 353 90 417 218 55 109 56
127 58 753 1 606 -1 642 -42 687 -10 11 -31 27 -47 35 -36 19 -131 24 -171 9z"/>
</g>
</svg>
